# xmcd CD database file
#
# Track frame offsets:
#	150
#	1151
#	19662
#	34074
#	49737
#	70687
#	83278
#	101149
#	117381
#	145577
#	161942
#	173805
#	189703
#	196157
#	217442
#	226688
#	231114
#	235914
#	248666
#	254602
#	287124
#
# Disc length: 4440 seconds
#
# Revision: 0
# Processed by: cddbd v1.5.1PL0 Copyright (c) Steve Scherf et al.
# Submitted via: CDex 1.51
#
DISCID=1f115615
DTITLE=WAVE MASTER - LET THE WINDS BLOW　SIDE-A HUNTERS
DYEAR=2003
DGENRE=Game
TTITLE0=Into The Sound - Logo -
TTITLE1="LET THE WINDS BLOW" - Theme of Phantasy Star OnlineEpisode ? -
TTITLE2=Gate - File Select -
TTITLE3=Morgue PART1 - モルグ -
TTITLE4=Code - Deck -
TTITLE5=Special Relaxies
TTITLE6=Hi, Guys!
TTITLE7=Mortis Fons - モルティスの泉 -
TTITLE8=Unguis Lapis - アンガス -
TTITLE9=Nebula Montana PART1 - ネピュラ高地　01 -
TTITLE10=Tener Sinus - テネル海岸 -
TTITLE11=Lupus Silba PART1 - ルプスの森 01 -
TTITLE12=Dolor Odor - ドロル・オドル -
TTITLE13=Ravum Aedes Sacra - ラウムの神殿 -
TTITLE14=New Lifes - Result -
TTITLE15=Scenario - Sorrow
TTITLE16=Scenario - Deadlock
TTITLE17=Scenario - Courage
TTITLE18=Scenario - Peace
TTITLE19=Scenario - Peace
TTITLE20=SIDE-A HUNTERS
EXTD=YEAR: 2003
EXTT0=
EXTT1=
EXTT2=
EXTT3=
EXTT4=
EXTT5=
EXTT6=
EXTT7=
EXTT8=
EXTT9=
EXTT10=
EXTT11=
EXTT12=
EXTT13=
EXTT14=
EXTT15=
EXTT16=
EXTT17=
EXTT18=
EXTT19=
EXTT20=
PLAYORDER=
